<svg width="680" viewBox="0 0 680 820" role="img" xmlns="http://www.w3.org/2000/svg"><title>Ship architecture now vs after</title><desc>Top: today one feature edits seven shared files across the client and helper binaries. Bottom: the agreed shape — independent modules over an apps and activation-records layer, adapters, a mechanism-only kernel, and OS primitives.</desc>
<defs><marker id="ar" markerWidth="8" markerHeight="8" refX="7" refY="4" orient="auto"><path d="M1,1 L7,4 L1,7" fill="none" stroke="#888780" stroke-width="1.4"/></marker>
<style>
  .th { font: 500 14px sans-serif; fill: #2C2C2A; }
  .ts { font: 400 12px sans-serif; fill: #444441; }
  .coral rect { fill: #FAECE7; stroke: #993C1D; }
  .coral text { fill: #712B13; }
  .teal rect { fill: #E1F5EE; stroke: #0F6E56; }
  .teal text { fill: #085041; }
  .purple rect { fill: #EEEDFE; stroke: #534AB7; }
  .purple text { fill: #3C3489; }
  .gray rect { fill: #F1EFE8; stroke: #5F5E5A; }
  .gray text { fill: #444441; }
</style></defs>

<text x="40" y="58" class="th">Now — every feature edits the same shared files</text>
<text x="40" y="80" class="ts">coral = files a single new feature must edit today</text>

<g class="gray"><rect x="40" y="96" width="250" height="170" rx="4" fill-opacity="0.35"/><text x="165" y="118" text-anchor="middle" class="ts">laptop · cmd/client</text></g>
<g class="coral"><rect x="54" y="132" width="222" height="34" rx="4"/><text x="165" y="154" text-anchor="middle" class="ts">verb builders</text></g>
<g class="coral"><rect x="54" y="174" width="222" height="34" rx="4"/><text x="165" y="196" text-anchor="middle" class="ts">human / JSON rendering</text></g>
<g class="gray"><rect x="54" y="216" width="222" height="34" rx="4"/><text x="165" y="238" text-anchor="middle" class="ts">ssh runner</text></g>

<g class="coral"><rect x="298" y="160" width="84" height="48" rx="4"/><text x="340" y="180" text-anchor="middle" class="ts">protocol</text><text x="340" y="196" text-anchor="middle" class="ts">catalogue</text></g>
<text x="340" y="228" text-anchor="middle" class="ts">ssh</text>

<g class="gray"><rect x="390" y="96" width="250" height="212" rx="4" fill-opacity="0.35"/><text x="515" y="118" text-anchor="middle" class="ts">box · cmd/helper</text></g>
<g class="coral"><rect x="404" y="132" width="222" height="34" rx="4"/><text x="515" y="154" text-anchor="middle" class="ts">command tree</text></g>
<g class="coral"><rect x="404" y="174" width="222" height="34" rx="4"/><text x="515" y="196" text-anchor="middle" class="ts">auth role matrix</text></g>
<g class="coral"><rect x="404" y="216" width="222" height="34" rx="4"/><text x="515" y="238" text-anchor="middle" class="ts">error catalogue + agent docs</text></g>
<g class="gray"><rect x="404" y="258" width="222" height="34" rx="4"/><text x="515" y="280" text-anchor="middle" class="ts">deploy engine</text></g>

<g class="coral"><rect x="40" y="330" width="600" height="34" rx="4"/><text x="340" y="352" text-anchor="middle" class="ts">4,000-line smoke test — shared by every feature</text></g>
<text x="40" y="392" class="ts">adding cron today: seven coordinated edits across both binaries — agents serialize</text>

<line x1="40" y1="412" x2="640" y2="412" stroke="#888780" stroke-width="1" stroke-dasharray="4 4"/>

<text x="40" y="444" class="th">After — a kernel of mechanism, modules of meaning</text>

<g class="teal"><rect x="40" y="462" width="112" height="36" rx="4"/><text x="96" y="485" text-anchor="middle" class="ts">data</text></g>
<g class="teal"><rect x="161" y="462" width="112" height="36" rx="4"/><text x="217" y="485" text-anchor="middle" class="ts">litestream</text></g>
<g class="teal"><rect x="282" y="462" width="112" height="36" rx="4" stroke-width="2.5"/><text x="338" y="485" text-anchor="middle" class="ts">cron · new</text></g>
<g class="teal"><rect x="403" y="462" width="112" height="36" rx="4"/><text x="459" y="485" text-anchor="middle" class="ts">hardening</text></g>
<g class="teal"><rect x="524" y="462" width="112" height="36" rx="4"/><text x="580" y="485" text-anchor="middle" class="ts">metrics</text></g>
<text x="40" y="522" class="ts">each module = one directory + one composition file · zero shared edits</text>

<g class="purple"><rect x="40" y="538" width="290" height="48" rx="4"/><text x="185" y="558" text-anchor="middle" class="th">apps</text><text x="185" y="576" text-anchor="middle" class="ts">deploy sequencing · 8 phases</text></g>
<g class="purple"><rect x="350" y="538" width="290" height="48" rx="4"/><text x="495" y="558" text-anchor="middle" class="th">activation-records</text><text x="495" y="576" text-anchor="middle" class="ts">pointer · journal · trust</text></g>

<line x1="130" y1="586" x2="130" y2="610" stroke="#888780" stroke-width="1.4" marker-end="url(#ar)"/>
<line x1="240" y1="586" x2="330" y2="610" stroke="#888780" stroke-width="1.4" marker-end="url(#ar)"/>
<line x1="300" y1="586" x2="540" y2="610" stroke="#888780" stroke-width="1.4" marker-end="url(#ar)"/>

<g class="gray"><rect x="40" y="612" width="180" height="34" rx="4"/><text x="130" y="634" text-anchor="middle" class="ts">build</text></g>
<g class="gray"><rect x="250" y="612" width="180" height="34" rx="4"/><text x="340" y="634" text-anchor="middle" class="ts">runtime</text></g>
<g class="gray"><rect x="460" y="612" width="180" height="34" rx="4"/><text x="550" y="634" text-anchor="middle" class="ts">proxy</text></g>

<g class="purple"><rect x="40" y="668" width="600" height="48" rx="4"/><text x="340" y="688" text-anchor="middle" class="th">kernel</text><text x="340" y="706" text-anchor="middle" class="ts">dispatch · authz · exec · events · state</text></g>

<g class="gray"><rect x="40" y="738" width="138" height="34" rx="4"/><text x="109" y="760" text-anchor="middle" class="ts">podman</text></g>
<g class="gray"><rect x="194" y="738" width="138" height="34" rx="4"/><text x="263" y="760" text-anchor="middle" class="ts">caddy</text></g>
<g class="gray"><rect x="348" y="738" width="138" height="34" rx="4"/><text x="417" y="760" text-anchor="middle" class="ts">systemd</text></g>
<g class="gray"><rect x="502" y="738" width="138" height="34" rx="4"/><text x="571" y="760" text-anchor="middle" class="ts">ufw · sysusers</text></g>

<text x="40" y="798" class="ts">modules render config for primitives; the kernel only runs and guards commands</text>
</svg>
